<svg preserveAspectRatio="none" width="100%" height="100%" overflow="visible" style="display: block;" viewBox="0 0 24 24" fill="none" xmlns="http://www.w3.org/2000/svg">
<g id="Frame">
<path id="Vector" d="M3.37478 8.00567C5.79854 3.5276 11.4169 1.95628 15.799 4.48628L16.694 2.93609C16.919 2.54638 17.4967 2.62585 17.6051 3.05798L18.635 6.87419C18.7082 7.1474 18.5532 7.41587 18.28 7.48907L14.4601 8.50528C14.0317 8.62741 13.679 8.15822 13.899 7.77717L14.799 6.21833C11.4215 4.26833 7.10353 5.44729 5.18683 8.86711C3.37014 12.1137 4.51579 16.3894 7.71241 18.2927C11.0736 20.291 15.4112 19.158 17.3612 15.7805C18.1662 14.3862 18.4349 12.8208 18.2195 11.3339C18.151 10.8325 18.457 10.3625 18.9488 10.2308C19.5311 10.082 20.1224 10.458 20.2078 11.05C20.4784 12.9614 20.1332 14.9792 19.0932 16.7805C16.5682 21.1539 10.9119 22.611 6.57385 19.9447C2.57719 17.4872 1.14237 12.1323 3.37478 8.00567Z" fill="var(--fill-0, #737373)"/>
</g>
</svg>
