<svg preserveAspectRatio="none" width="100%" height="100%" overflow="visible" style="display: block;" viewBox="0 0 24 24" fill="none" xmlns="http://www.w3.org/2000/svg">
<g id="Frame">
<path id="Vector" d="M11.4 2.01901C6.62 2.32901 3 6.51901 3 11.309V17.999C3 19.659 4.34 20.999 6 20.999H7C8.1 20.999 9 20.099 9 18.999V14.999C9 13.899 8.1 12.999 7 12.999H5V11.289C5 7.44901 7.96 4.10901 11.79 3.99901C15.76 3.88901 19 7.05901 19 10.999V12.999H17C15.9 12.999 15 13.899 15 14.999V18.999C15 20.099 15.9 20.999 17 20.999H18C19.66 20.999 21 19.659 21 17.999V10.999C21 5.82901 16.64 1.67901 11.4 2.01901V2.01901Z" fill="var(--fill-0, #737373)"/>
</g>
</svg>
